<?xml version="1.0" encoding="utf-8"?>
<!-- Generator: Adobe Illustrator 27.7.0, SVG Export Plug-In . SVG Version: 6.00 Build 0)  -->
<svg version="1.1" id="Calque_1" xmlns="http://www.w3.org/2000/svg" xmlns:xlink="http://www.w3.org/1999/xlink" x="0px" y="0px"
	 viewBox="0 0 1600 900" style="enable-background:new 0 0 1600 900;" xml:space="preserve">
<style type="text/css">
	.st0{fill:#BD9C65;}
</style>
<g id="Calque_8">
</g>
<g id="Calque_7">
	<g>
		<path class="st0" d="M689.33,121.37l-11.25,6.36l41.81,329.57l0.03,0.12c0.01,0.02,0.01,0.04,0.02,0.06
			c2.61,1.12,5.39,2.18,8.26,3.16L689.33,121.37z"/>
		<path class="st0" d="M740.72,465.26c3.28,0.97,6.81,1.83,10.5,2.58l-28.3-366.05l-13.61,7.55"/>
		<path class="st0" d="M763,76.54L744.53,87.9l22.21,383.91c3.57,0.6,7.37,1.05,11.58,1.37L763,76.54z"/>
		<path class="st0" d="M906.43,121.37l11.25,6.36L875.87,457.3l-0.03,0.12c-0.01,0.02-0.01,0.04-0.02,0.06
			c-2.61,1.12-5.39,2.18-8.26,3.16L906.43,121.37z"/>
		<path class="st0" d="M855.04,465.26c-3.28,0.97-6.81,1.83-11.73,2.58l29.53-366.05l13.61,7.55"/>
		<path class="st0" d="M832.76,76.54l18.46,11.35l-22.2,383.91c-3.57,0.6-7.37,1.05-11.58,1.37L832.76,76.54z"/>
		<path class="st0" d="M797.13,60.04l-11.28,9.31c-0.01,0.07-0.01,0.13-0.02,0.2c-0.02,0.15-0.04,0.3-0.04,0.45l5.48,406.59
			l5.97,0.16l6.54-0.17l4.82-407.12L797.13,60.04z"/>
		<polygon class="st0" points="797.25,490.23 797.25,490.23 720.84,472.19 722.3,483.38 797.25,503.87 797.25,503.87 872.1,483.38 
			873.57,472.19 		"/>
	</g>
	<path class="st0" d="M478.62,807.93c1.75-0.68,3.11-1.74,4.1-3.2c0.98-1.45,1.47-3.14,1.47-5.05c0-3.5-1.22-6.15-3.67-7.96
		s-6.03-2.72-10.76-2.72h-13.65v38.97h15.15c4.43-0.04,7.83-1.02,10.23-2.94c2.39-1.93,3.59-4.76,3.59-8.51
		c0-2.19-0.58-4.05-1.73-5.57C482.19,809.43,480.62,808.43,478.62,807.93z M464.14,795.5h5.62c2.21,0,3.83,0.39,4.86,1.16
		c1.03,0.78,1.54,2.05,1.54,3.81c0,3.16-2.03,4.77-6.08,4.85h-5.94V795.5z M475.45,820.17c-1.06,0.9-2.54,1.35-4.43,1.35h-6.88V811
		h7.36c3.69,0.05,5.54,1.86,5.54,5.43C477.04,818.03,476.51,819.27,475.45,820.17z"/>
	<path class="st0" d="M571.27,790.81c-2.53-1.56-5.41-2.34-8.66-2.34s-6.13,0.78-8.66,2.34c-2.53,1.56-4.48,3.8-5.86,6.72
		s-2.07,6.3-2.07,10.13v1.93c0.02,3.75,0.72,7.06,2.11,9.94s3.35,5.1,5.89,6.65c2.53,1.55,5.42,2.33,8.65,2.33
		c3.27,0,6.16-0.79,8.69-2.36c2.52-1.57,4.47-3.8,5.82-6.69c1.36-2.89,2.03-6.25,2.03-10.09v-1.74c0-3.82-0.69-7.19-2.07-10.1
		C575.75,794.61,573.8,792.37,571.27,790.81z M571.07,809.5c-0.02,4.05-0.75,7.13-2.2,9.25c-1.45,2.11-3.52,3.17-6.21,3.17
		c-2.75,0-4.85-1.1-6.32-3.29c-1.46-2.19-2.2-5.28-2.2-9.26v-1.9c0.02-4.05,0.76-7.12,2.22-9.22c1.46-2.1,3.54-3.15,6.24-3.15
		c2.71,0,4.8,1.06,6.26,3.19c1.46,2.12,2.2,5.23,2.2,9.32v1.89H571.07z"/>
	<path class="st0" d="M658.72,814.94c-0.07,4.75-2.36,7.12-6.88,7.12c-2.16,0-3.85-0.58-5.07-1.75c-1.22-1.17-1.83-3.03-1.83-5.58
		V789h-8.03v25.97c0.05,4.21,1.42,7.52,4.1,9.93s6.29,3.61,10.84,3.61c4.62,0,8.27-1.24,10.93-3.72c2.67-2.48,4-5.85,4-10.12V789
		h-8.06L658.72,814.94L658.72,814.94z"/>
	<polygon class="st0" points="725.2,795.5 736.98,795.5 736.98,827.97 745.01,827.97 745.01,795.5 756.95,795.5 756.95,789 
		725.2,789 	"/>
	<rect x="823.99" y="789" class="st0" width="8.03" height="38.97"/>
	<path class="st0" d="M919.4,790.81c-2.53-1.56-5.41-2.34-8.66-2.34s-6.13,0.78-8.66,2.34c-2.53,1.56-4.48,3.8-5.86,6.72
		s-2.07,6.3-2.07,10.13v1.93c0.02,3.75,0.72,7.06,2.11,9.94s3.35,5.1,5.89,6.65c2.53,1.55,5.42,2.33,8.65,2.33
		c1.02,0,2-0.08,2.94-0.24l8.3,6.67l5.11-4.52l-6.48-5.09c2.09-1.62,3.72-3.78,4.9-6.46c1.18-2.69,1.77-5.85,1.77-9.49v-1.74
		c0-3.82-0.69-7.19-2.07-10.1C923.87,794.61,921.92,792.37,919.4,790.81z M919.19,809.5c-0.02,4.05-0.75,7.13-2.19,9.25
		c-1.45,2.11-3.52,3.17-6.21,3.17c-2.75,0-4.85-1.1-6.32-3.29c-1.46-2.19-2.2-5.28-2.2-9.26v-1.9c0.02-4.05,0.76-7.12,2.22-9.22
		c1.46-2.1,3.54-3.15,6.24-3.15c2.71,0,4.8,1.06,6.26,3.19c1.46,2.12,2.19,5.23,2.19,9.32v1.89H919.19z"/>
	<path class="st0" d="M1007.49,814.94c-0.07,4.75-2.36,7.12-6.88,7.12c-2.16,0-3.85-0.58-5.07-1.75c-1.22-1.17-1.83-3.03-1.83-5.58
		V789h-8.03v25.97c0.05,4.21,1.42,7.52,4.1,9.93s6.29,3.61,10.84,3.61c4.62,0,8.27-1.24,10.93-3.72c2.67-2.48,4-5.85,4-10.12V789
		h-8.06L1007.49,814.94L1007.49,814.94z"/>
	<polygon class="st0" points="1077.68,811.08 1093.1,811.08 1093.1,804.79 1077.68,804.79 1077.68,795.5 1095.72,795.5 1095.72,789 
		1069.65,789 1069.65,827.97 1095.78,827.97 1095.78,821.52 1077.68,821.52 	"/>
	<path d="M1091.57,705.31c-1.11-1.33-1.45-3.36-1.55-4.71l-0.04-98.76c0,0.11,0.01,0.18,0.01,0.18v-0.79c0,0.09,0,0.17-0.01,0.24
		v-0.28l0.01,0.04c0.04-1.27,0.29-3.79,1.59-5.36c1.57-1.89,5-3.04,5-3.04h-6.59h-1.18h-19.12h-6.59c0,0,3.43,1.14,5,3.04
		c1.32,1.59,1.56,4.16,1.6,5.41v0.73v39.98l-58.29,0.02l-0.02-41.12c0.07-1.34,0.38-3.58,1.57-5.03c1.57-1.89,5-3.04,5-3.04h-6.57
		h-0.01h-20.31h-6.17c0,0,3.43,1.14,5,3.04c1.32,1.59,1.13,4.15,1.17,5.4v0.75v97.15v0.75c-0.04,1.26-0.28,3.81-1.59,5.4
		c-1.57,1.89-5,2.75-5,2.75h6.59h20.31h0.06h6.67c0,0-3.58-0.86-5.14-2.75c-1.05-1.26-1.41-3.13-1.53-4.48l-0.02-48.1l58.28-0.02
		v46.46v0.73c-0.04,1.25-0.28,3.82-1.6,5.41c-1.57,1.89-5,2.75-5,2.75h6.59H1090h0.04h6.55
		C1096.57,708.06,1093.14,707.2,1091.57,705.31z"/>
	<polygon class="st0" points="1381.64,636 1393.15,636 1402.02,592.83 1384.83,592.83 	"/>
	<path d="M119.92,592.83H82.77l0.05,115.27l20.43-0.01v-0.01h6.54c0,0-3.43-0.85-5-2.74c-1.1-1.33-1.45-3.33-1.55-4.69l-0.02-42.58
		c1.08,0.23,58.97,5.33,58.97-29.67C162.19,593.31,125.8,592.83,119.92,592.83z M103.22,652.89l-0.02-56.19l13.41-0.01
		c3.51,0,30,0.16,30,30.93C146.62,661.33,103.22,652.89,103.22,652.89z"/>
	<path d="M641.39,705.34c-2.37-1.65-3.65-2.81-5.57-5.59l-33.02-47.48c11.19-3.79,20.47-11.16,20.47-25.16
		c0-35.1-36.39-34.27-42.28-34.27h-35.03h-0.11h-6.48c0,0,3.43,1.14,5,3.04c0.93,1.12,1.49,3.16,1.49,4.93L545.9,701
		c-0.14,1.34-0.51,3.14-1.53,4.36c-1.57,1.89-5,2.74-5,2.74h6.59l19.19-0.01v0.01h5.77c0,0-1.43-0.85-3-2.74
		c-1.3-1.57-1.57-3.98-1.6-5.25l-0.02-44.65c0.45,0.1,6.91,1.28,18.9,0.03l35.38,52.55h20.6h0.01h6.66
		C647.85,708.04,644.14,707.26,641.39,705.34z M566.3,648.28l-0.02-49.58l11.41-0.01c3.51,0,30-3.14,30,27.63
		C607.7,653.83,566.3,648.28,566.3,648.28z"/>
	<path d="M293.34,705.52c-2.07-1.67-4.67-7.71-4.87-7.76l-48.28-104.93h-8.43L182.1,698.46c0,0-2.2,4.55-5.31,7.06
		c-2.61,2.11-5.87,2.55-5.87,2.55h6.65h0.01h4.11l0,0h11.9c0,0-3.14-0.83-3.49-3.05c-0.2-1.25,0.93-3.83,0.93-3.83l38.35-82.37
		l40.09,89.2h29.74C299.21,708.02,295.95,707.62,293.34,705.52z"/>
	<path d="M757.46,592.83h-0.02h-7.68h-2.2h-0.34l0,0h-7.38c0.74,0.11,2.07,0.95,2.07,2.75c0,2.79-1.96,5.66-1.96,5.66l-28.38,45.1
		l-36.21-53.52h-22.95h-0.22h-6.42c0,0,4.85,1.12,7.46,3.23c0.99,0.8,1.93,1.77,2.77,2.71l39.97,62.26l0.02,39.21
		c-0.06,1.33-0.36,3.65-1.58,5.12c-1.57,1.89-5,2.68-5,2.68h6.58H696h18.28l0,0h6.58c0,0-3.43-0.79-5-2.68
		c-1.3-1.57-1.55-4.09-1.59-5.36l-0.02-40.01l38.32-59.69c0.88-1.47,2.46-3.03,4.06-4.24c2.69-2.01,7.46-3.23,7.46-3.23h-6.63
		V592.83z"/>
	<g>
		<path d="M518.73,592.83h-99.08v9.69l0,0v6.58c0,0,0.88-3.81,2.77-5.37c1.1-0.91,3.27-0.99,3.85-1h0.15l30.62-0.01l0.04,97.47
			c-0.06,1.32-0.35,3.68-1.59,5.17c-1.57,1.89-4,2.74-4,2.74h5.59l0,0h20.37h0.02h6.57c0,0-3.43-0.85-5-2.74
			c-1.21-1.46-1.51-3.73-1.58-5.06l-0.04-97.59l34.39-0.01h0.09c0.58,0,2.96,0.12,4.06,1.03c1.89,1.57,2.77,5.37,2.77,5.37V592.83z"
			/>
		<path d="M511.96,602.73h0.15C512.02,602.73,511.96,602.73,511.96,602.73z"/>
	</g>
	<path d="M937.32,673.83c-11.37,24.27-48.53,34.3-68.54,13.66c-14.09-14.29-15.69-39.08-8.81-57.53
		c7.48-22.73,38.04-35.37,57.33-22.05c6.04,4.17,21.28,15.28,13.55,22.31l14.44-9.27c-29.89-51.61-113.52-29.49-113.13,30.42
		c-1.04,59.71,84.4,80.87,113.16,29.56L937.32,673.83z"/>
	<path d="M1224.38,692.14c0,0-1.13,2.99-3.02,4.55c-1.31,1.09-3.37,1.84-5.35,1.84l-51.94,0.02l-0.02-45.91l44.33-0.01
		c0.94,0,3.55,0.24,5.71,2.03c1.89,1.57,3.02,4.55,3.02,4.55l-0.01-17.13h0.01v-6.58c0,0-1.13,2.99-3.02,4.55
		c-1.24,1.03-1.9,1.8-5.26,1.8l-44.79,0.01l-0.02-38.26l52.67-0.02c2.76,0,3.58,0.79,4.66,1.68c1.89,1.57,2.99,4.55,2.99,4.55v-6.23
		v-0.34v-10.39h-79.53h-1.18h-6.6c0,0,3.43,1.15,5,3.04c1.32,1.59,1.57,4.09,1.61,5.34l0.04,99.2c-0.09,1.35-0.42,3.5-1.57,4.89
		c-1.57,1.89-5,2.75-5,2.75h6.57h0.02h80.67v-9.35l0,0v-6.58H1224.38z"/>
	<path d="M1272.39,592.83h-6.55c0,0,3.43,1.15,5,3.04c1.09,1.31,1.44,3.29,1.55,4.65l0.04,99.46c-0.04,1.28-0.31,3.77-1.59,5.32
		c-1.57,1.89-5,2.75-5,2.75h6.59h20.53h0.02h6.57c0,0-3.43-0.86-5-2.75c-1.2-1.45-1.5-3.71-1.57-5.04l-0.02-46.99l42.79-0.01
		c1.76,0,2.88,0.51,4.67,2c1.89,1.57,3.02,4.55,3.02,4.55v-6.55v-0.03v-10.56v-0.02v-6.56c0,0-1.13,2.99-3.02,4.55
		c-1.86,1.54-3.27,2.01-4.74,2.01l-42.72,0.01l-0.02-40.51l47.73-0.02c3.49,0,3.87,0.78,4.99,1.72c1.89,1.57,3.02,4.55,3.02,4.55
		v-6.27v-0.31v-8.99h-76.24L1272.39,592.83L1272.39,592.83z"/>
	<path d="M1510.5,666.74c-11.05-18.06-33.01-25.44-49.23-37.43c-28.19-21.14,9.34-40.05,28.76-22.79c5.16,4.43,13.5,13.67,4.8,18.29
		l5.86-2.42l0,0l9.71-4.44c-7.96-36.2-75.46-35.46-75.67,4.12c1.59,31.72,42,34.1,57.38,55.79c12.54,23.04-22.75,30.97-36.4,18.72
		c-5.17-4.04-16.5-14.83-7.04-19.84c-0.2,0.09-5.8,2.57-6.01,2.66v0.01l-9.95,4.1C1443.67,726.8,1529.06,714.25,1510.5,666.74z"/>
	<path d="M391.83,666.74c-11.05-18.06-33.01-25.44-49.23-37.43c-28.19-21.14,9.34-40.05,28.76-22.79c5.16,4.43,13.5,13.67,4.8,18.29
		l5.86-2.42l0,0l9.71-4.44c-7.96-36.2-75.46-35.46-75.67,4.12c1.59,31.72,42,34.1,57.38,55.79c12.54,23.04-22.75,30.97-36.4,18.72
		c-5.17-4.04-16.5-14.83-7.04-19.84c-0.2,0.09-5.8,2.57-6.01,2.66v0.01l-9.95,4.1C325.01,726.8,410.39,714.25,391.83,666.74z"/>
</g>
</svg>
